<svg xmlns="http://www.w3.org/2000/svg" viewBox="0 0 680 680" width="680" height="680" role="img">
<title>Flow pensando — estado vazio</title>
<desc>Pose pensativa para telas sem dados e filtros vazios.</desc>
<defs>
<linearGradient id="body" x1="20%" y1="0%" x2="85%" y2="100%"><stop offset="0%" stop-color="#FFFFFF"/><stop offset="45%" stop-color="#F8F9FF"/><stop offset="100%" stop-color="#D8DCF5"/></linearGradient>
<linearGradient id="shade" x1="0%" y1="0%" x2="100%" y2="100%"><stop offset="0%" stop-color="#7F77DD" stop-opacity="0"/><stop offset="100%" stop-color="#534AB7" stop-opacity="0.35"/></linearGradient>
<linearGradient id="fold" x1="0%" y1="0%" x2="100%" y2="100%"><stop offset="0%" stop-color="#CECBF6"/><stop offset="100%" stop-color="#7F77DD"/></linearGradient>
<radialGradient id="face" cx="50%" cy="35%" r="75%"><stop offset="0%" stop-color="#3C3489"/><stop offset="55%" stop-color="#26215C"/><stop offset="100%" stop-color="#100B33"/></radialGradient>
<radialGradient id="faceSuccess" cx="50%" cy="35%" r="75%"><stop offset="0%" stop-color="#0F6E56"/><stop offset="55%" stop-color="#085041"/><stop offset="100%" stop-color="#04342C"/></radialGradient>
<radialGradient id="faceWarn" cx="50%" cy="35%" r="75%"><stop offset="0%" stop-color="#854F0B"/><stop offset="55%" stop-color="#633806"/><stop offset="100%" stop-color="#412402"/></radialGradient>
<radialGradient id="eyeBlue" cx="50%" cy="50%" r="50%"><stop offset="0%" stop-color="#FFFFFF"/><stop offset="35%" stop-color="#AFE4FF"/><stop offset="75%" stop-color="#378ADD"/><stop offset="100%" stop-color="#185FA5"/></radialGradient>
<radialGradient id="eyeGreen" cx="50%" cy="50%" r="50%"><stop offset="0%" stop-color="#FFFFFF"/><stop offset="35%" stop-color="#C0DD97"/><stop offset="75%" stop-color="#639922"/><stop offset="100%" stop-color="#3B6D11"/></radialGradient>
<radialGradient id="eyeAmber" cx="50%" cy="50%" r="50%"><stop offset="0%" stop-color="#FFFFFF"/><stop offset="35%" stop-color="#FAC775"/><stop offset="75%" stop-color="#EF9F27"/><stop offset="100%" stop-color="#BA7517"/></radialGradient>
<radialGradient id="shadow" cx="50%" cy="50%" r="50%"><stop offset="0%" stop-color="#26215C" stop-opacity="0.3"/><stop offset="60%" stop-color="#26215C" stop-opacity="0.1"/><stop offset="100%" stop-color="#26215C" stop-opacity="0"/></radialGradient>
</defs>
<ellipse cx="340" cy="615" rx="155" ry="20" fill="url(#shadow)"/>
<ellipse cx="290" cy="600" rx="38" ry="14" fill="#534AB7" stroke="#26215C" stroke-width="2"/>
<ellipse cx="290" cy="597" rx="32" ry="9" fill="#7F77DD"/>
<ellipse cx="390" cy="600" rx="38" ry="14" fill="#534AB7" stroke="#26215C" stroke-width="2"/>
<ellipse cx="390" cy="597" rx="32" ry="9" fill="#7F77DD"/>
<path d="M 220 180 Q 220 130 270 125 L 410 125 Q 440 125 455 145 L 495 190 Q 510 210 510 240 L 510 520 Q 510 575 455 585 L 235 585 Q 180 580 180 525 L 180 240 Q 180 190 220 180 Z" fill="url(#body)" stroke="#7F77DD" stroke-width="2.5" stroke-linejoin="round"/>
<path d="M 510 240 L 510 520 Q 510 575 455 585 L 380 585 Q 460 575 470 520 L 470 250 Q 465 220 450 205 Z" fill="url(#shade)" opacity="0.65"/>
<path d="M 455 145 L 495 190 L 458 190 Q 448 190 448 180 L 448 148 Z" fill="url(#fold)" stroke="#534AB7" stroke-width="2" stroke-linejoin="round"/>
<rect x="232" y="222" width="246" height="200" rx="46" fill="url(#face)" stroke="#26215C" stroke-width="2"/>
<g transform="translate(295 320)"><circle r="38" fill="url(#eyeBlue)"/><circle r="22" fill="#FFFFFF" opacity="0.3"/><circle cx="0" cy="-15" r="12" fill="#FFFFFF"/></g>
<g transform="translate(415 320)"><circle r="38" fill="url(#eyeBlue)"/><circle r="22" fill="#FFFFFF" opacity="0.3"/><circle cx="0" cy="-15" r="12" fill="#FFFFFF"/></g>
<path d="M 325 390 Q 355 395 385 390" fill="none" stroke="#85B7EB" stroke-width="5" stroke-linecap="round"/>
<ellipse cx="265" cy="370" rx="14" ry="8" fill="#7F77DD" opacity="0.35"/>
<ellipse cx="445" cy="370" rx="14" ry="8" fill="#7F77DD" opacity="0.35"/>
<line x1="340" y1="125" x2="340" y2="95" stroke="#534AB7" stroke-width="3" stroke-linecap="round"/>
<circle cx="340" cy="90" r="9" fill="#7F77DD" stroke="#3C3489" stroke-width="2"/>
<circle cx="340" cy="90" r="3.5" fill="#E6F1FB"/>
<path d="M 495 380 Q 480 340 460 280 Q 450 245 475 235 L 500 240 Q 515 248 515 265 L 510 380 Z" fill="url(#body)" stroke="#7F77DD" stroke-width="2.5" stroke-linejoin="round"/>
<ellipse cx="485" cy="235" rx="32" ry="28" fill="#FFFFFF" stroke="#7F77DD" stroke-width="2.5"/>
<path d="M 195 380 Q 165 390 158 430 Q 152 470 185 485 L 235 490 Q 248 490 250 475 L 248 420 Q 246 400 230 392 Z" fill="url(#body)" stroke="#7F77DD" stroke-width="2.5" stroke-linejoin="round"/>
<ellipse cx="195" cy="480" rx="32" ry="28" fill="#FFFFFF" stroke="#7F77DD" stroke-width="2.5"/>
<circle cx="555" cy="200" r="8" fill="#AFA9EC" opacity="0.7"/>
<circle cx="580" cy="170" r="13" fill="#AFA9EC" opacity="0.8"/>
<circle cx="615" cy="130" r="22" fill="#CECBF6"/>
<text x="615" y="140" text-anchor="middle" font-family="system-ui, -apple-system, sans-serif" font-size="28" font-weight="500" fill="#3C3489">?</text>
</svg>